<svg xmlns="http://www.w3.org/2000/svg" viewBox="0 0 24 24">
  <symbol id="email" viewBox="0 0 24 24" fill="none" stroke="currentColor" stroke-width="1.5">
    <path stroke-linecap="round" stroke-linejoin="round"
      d="M21.75 6.75v10.5a2.25 2.25 0 0 1-2.25 2.25h-15a2.25 2.25 0 0 1-2.25-2.25V6.75m19.5 0A2.25 2.25 0 0 0 19.5 4.5h-15a2.25 2.25 0 0 0-2.25 2.25m19.5 0v.243a2.25 2.25 0 0 1-1.07 1.916l-7.5 4.615a2.25 2.25 0 0 1-2.36 0L3.32 8.91a2.25 2.25 0 0 1-1.07-1.916V6.75" />
  </symbol>
  <symbol id="phone" viewBox="0 0 24 24" fill="none" stroke="currentColor" stroke-width="1.5">
    <path stroke-linecap="round" stroke-linejoin="round"
      d="M2.25 6.75c0 8.284 6.716 15 15 15h2.25a2.25 2.25 0 0 0 2.25-2.25v-1.372c0-.516-.351-.966-.852-1.091l-4.423-1.106c-.44-.11-.902.055-1.173.417l-.97 1.293c-.282.376-.769.542-1.21.38a12.035 12.035 0 0 1-7.143-7.143c-.162-.441.004-.928.38-1.21l1.293-.97c.363-.271.527-.734.417-1.173L6.963 3.102a1.125 1.125 0 0 0-1.091-.852H4.5A2.25 2.25 0 0 0 2.25 4.5v2.25Z" />
  </symbol>
  <symbol id="github" viewBox="0 0 24 24" fill="none" stroke="currentColor" stroke-width="1.5">
    <path stroke-linecap="round" stroke-linejoin="round"
      d="M9 19c-4.3 1.4 -4.3 -2.5 -6 -3m12 5v-3.5c0 -1 .1 -1.4 -.5 -2c2.8 -.3 5.5 -1.4 5.5 -6a4.6 4.6 0 0 0 -1.3 -3.2a4.2 4.2 0 0 0 -.1 -3.2s-1.1 -.3 -3.5 1.3a12.3 12.3 0 0 0 -6.2 0c-2.4 -1.6 -3.5 -1.3 -3.5 -1.3a4.2 4.2 0 0 0 -.1 3.2a4.6 4.6 0 0 0 -1.3 3.2c0 4.6 2.7 5.7 5.5 6c-.6 .6 -.6 1.2 -.5 2v3.5" />
  </symbol>
  <symbol id="linkedin" viewBox="0 0 24 24" fill="none" stroke="currentColor" stroke-width="1.5" stroke-linecap="round">
    <path d="M4 4m0 2a2 2 0 0 1 2 -2h12a2 2 0 0 1 2 2v12a2 2 0 0 1 -2 2h-12a2 2 0 0 1 -2 -2z" />
    <path d="M8 11l0 5" />
    <path d="M8 8l0 .01" />
    <path d="M12 16l0 -5" />
    <path d="M16 16v-3a2 2 0 0 0 -4 0" />
  </symbol>
</svg>
